<svg width="168" height="39" viewBox="0 0 168 39" fill="none" xmlns="http://www.w3.org/2000/svg">
<path d="M4.63867 39V17.7598H0.708008V12.584H4.63867V10.3379C4.63867 7.37565 5.48503 5.08073 7.17773 3.45312C8.88672 1.80924 11.2712 0.987305 14.3311 0.987305C15.3076 0.987305 16.5039 1.15007 17.9199 1.47559L17.8467 6.94434C17.2607 6.79785 16.5446 6.72461 15.6982 6.72461C13.0452 6.72461 11.7188 7.96973 11.7188 10.46V12.584H16.9678V17.7598H11.7188V39H4.63867ZM28.8818 39H21.5576V3.45312H28.8818V39ZM48.8281 30.1865L56.8848 3.45312H65.0391L52.6611 39H45.0195L32.6904 3.45312H40.8203L48.8281 30.1865ZM89.7949 23.5947H75.7324V33.1162H92.2363V39H68.4082V3.45312H92.1875V9.38574H75.7324V17.8574H89.7949V23.5947ZM108.984 39V3.45312H119.922C123.047 3.45312 125.838 4.16113 128.296 5.57715C130.77 6.97689 132.699 8.97884 134.082 11.583C135.465 14.1709 136.157 17.1169 136.157 20.4209V22.0566C136.157 25.3607 135.474 28.2985 134.106 30.8701C132.756 33.4417 130.843 35.4355 128.369 36.8516C125.895 38.2676 123.104 38.9837 119.995 39H108.984ZM116.309 9.38574V33.1162H119.849C122.713 33.1162 124.902 32.1803 126.416 30.3086C127.93 28.4368 128.703 25.7594 128.735 22.2764V20.3965C128.735 16.7832 127.987 14.0488 126.489 12.1934C124.992 10.3216 122.803 9.38574 119.922 9.38574H116.309ZM141.504 39V3.45312H153.955C158.268 3.45312 161.54 4.2832 163.77 5.94336C165.999 7.58724 167.114 10.0042 167.114 13.1943C167.114 14.9359 166.667 16.474 165.771 17.8086C164.876 19.127 163.631 20.0954 162.036 20.7139C163.859 21.1696 165.291 22.0892 166.333 23.4727C167.391 24.8561 167.92 26.5488 167.92 28.5508C167.92 31.9688 166.829 34.5566 164.648 36.3145C162.467 38.0723 159.359 38.9674 155.322 39H141.504ZM148.828 23.5215V33.1162H155.103C156.828 33.1162 158.171 32.7093 159.131 31.8955C160.107 31.0654 160.596 29.9261 160.596 28.4775C160.596 25.2223 158.911 23.5703 155.542 23.5215H148.828ZM148.828 18.3457H154.248C157.943 18.2806 159.79 16.8076 159.79 13.9268C159.79 12.3154 159.318 11.1598 158.374 10.46C157.446 9.74382 155.973 9.38574 153.955 9.38574H148.828V18.3457Z" fill="url(#paint0_linear_1_194)"/>
<defs>
<linearGradient id="paint0_linear_1_194" x1="-2.2367e-06" y1="66.5" x2="173.046" y2="53.8748" gradientUnits="userSpaceOnUse">
<stop stop-color="#80C342"/>
<stop offset="1" stop-color="#862D91"/>
</linearGradient>
</defs>
</svg>
