<?xml version="1.0" encoding="UTF-8"?>
<svg xmlns="http://www.w3.org/2000/svg" xmlns:xlink="http://www.w3.org/1999/xlink" width="1292pt" height="1108pt" viewBox="0 0 323 277" version="1.1">
<g id="surface1">
<path style=" stroke:none;fill-rule:nonzero;fill:rgb(36.083984%,36.863708%,39.598083%);fill-opacity:1;" d="M 0.976563 259.652344 C 0.976563 266.292969 5.84375 270.871094 12.261719 270.871094 C 14.425781 270.871094 16.386719 270.335938 18.070313 269.375 C 18.222656 269.285156 18.414063 269.320313 18.53125 269.449219 C 18.777344 269.734375 19.195313 270.210938 19.390625 270.433594 C 19.460938 270.515625 19.5625 270.5625 19.667969 270.5625 C 20.070313 270.5625 21.113281 270.5625 21.855469 270.5625 C 22 270.5625 22.128906 270.476563 22.191406 270.34375 C 22.25 270.214844 22.226563 270.0625 22.132813 269.953125 C 21.609375 269.347656 20.828125 268.449219 20.449219 268.011719 C 20.324219 267.867188 20.332031 267.652344 20.46875 267.515625 C 22.378906 265.535156 23.546875 262.796875 23.546875 259.652344 C 23.546875 253.015625 18.679688 248.4375 12.261719 248.4375 C 5.683594 248.4375 0.976563 253.328125 0.976563 259.652344 Z M 3.820313 259.652344 C 3.820313 254.574219 7.453125 250.929688 12.261719 250.929688 C 17.003906 250.929688 20.703125 254.574219 20.703125 259.652344 C 20.703125 261.886719 19.988281 263.878906 18.769531 265.398438 C 18.699219 265.484375 18.597656 265.53125 18.492188 265.53125 C 18.382813 265.535156 18.28125 265.488281 18.210938 265.40625 C 17.808594 264.949219 17.089844 264.113281 16.710938 263.675781 C 16.644531 263.601563 16.554688 263.554688 16.457031 263.550781 C 16.355469 263.542969 16.261719 263.578125 16.1875 263.644531 C 15.851563 263.945313 15.289063 264.449219 14.960938 264.742188 C 14.8125 264.875 14.796875 265.105469 14.925781 265.253906 C 15.277344 265.671875 15.945313 266.460938 16.332031 266.914063 C 16.402344 267 16.433594 267.113281 16.410156 267.222656 C 16.390625 267.332031 16.320313 267.425781 16.222656 267.476563 C 15.070313 268.054688 13.730469 268.378906 12.261719 268.378906 C 7.519531 268.378906 3.820313 264.609375 3.820313 259.652344 "/>
<path style=" stroke:none;fill-rule:nonzero;fill:rgb(36.083984%,36.863708%,39.598083%);fill-opacity:1;" d="M 37.367188 264.984375 C 37.367188 267.195313 35.34375 268.378906 33.035156 268.378906 C 31.296875 268.378906 29.171875 267.59375 27.84375 266.121094 C 27.773438 266.039063 27.671875 265.996094 27.566406 265.996094 C 27.460938 265.996094 27.359375 266.042969 27.289063 266.121094 C 26.96875 266.496094 26.453125 267.09375 26.1875 267.402344 C 26.085938 267.523438 26.070313 267.695313 26.148438 267.832031 C 27.363281 269.746094 30.390625 270.871094 33.007813 270.871094 C 37.019531 270.871094 40.214844 268.535156 40.214844 264.953125 C 40.214844 257.503906 29.402344 259.53125 29.402344 254.136719 C 29.402344 252.207031 30.917969 250.929688 33.386719 250.929688 C 35.152344 250.929688 36.46875 251.453125 37.578125 252.425781 C 37.652344 252.496094 37.757813 252.527344 37.859375 252.519531 C 37.960938 252.507813 38.054688 252.453125 38.117188 252.371094 C 38.40625 251.972656 38.886719 251.316406 39.144531 250.960938 C 39.253906 250.816406 39.238281 250.613281 39.109375 250.484375 C 37.808594 249.242188 35.644531 248.4375 33.226563 248.4375 C 29.023438 248.4375 26.558594 250.992188 26.558594 254.136719 C 26.558594 261.367188 37.367188 259.652344 37.367188 264.984375 "/>
<path style=" stroke:none;fill-rule:nonzero;fill:rgb(36.083984%,36.863708%,39.598083%);fill-opacity:1;" d="M 46.644531 270.5625 C 46.847656 270.5625 47.011719 270.398438 47.011719 270.191406 C 47.011719 268.820313 47.011719 263.996094 47.011719 262.574219 C 47.011719 262.472656 47.054688 262.375 47.128906 262.304688 C 47.203125 262.238281 47.304688 262.203125 47.40625 262.210938 C 48.421875 262.277344 49.546875 262.300781 50.328125 262.300781 C 55.734375 262.300781 58.296875 259 58.296875 255.445313 C 58.296875 252.050781 56.433594 248.683594 50.109375 248.683594 C 48.839844 248.683594 46.097656 248.738281 44.691406 248.746094 C 44.488281 248.746094 44.324219 248.910156 44.324219 249.113281 C 44.324219 251.730469 44.324219 267.570313 44.324219 270.191406 C 44.324219 270.398438 44.488281 270.5625 44.691406 270.5625 C 45.203125 270.5625 46.128906 270.5625 46.644531 270.5625 Z M 50.363281 251.175781 C 53.871094 251.175781 55.453125 252.828125 55.453125 255.414063 C 55.453125 258.15625 53.492188 259.808594 50.234375 259.808594 C 49.246094 259.808594 48.304688 259.757813 47.347656 259.683594 C 47.15625 259.667969 47.011719 259.507813 47.011719 259.316406 C 47.011719 257.96875 47.011719 252.980469 47.011719 251.597656 C 47.011719 251.398438 47.167969 251.234375 47.367188 251.230469 C 48.359375 251.203125 49.574219 251.175781 50.363281 251.175781 "/>
<path style=" stroke:none;fill-rule:nonzero;fill:rgb(36.083984%,36.863708%,39.598083%);fill-opacity:1;" d="M 86.433594 266.824219 C 86.382813 266.730469 86.292969 266.664063 86.1875 266.640625 C 86.085938 266.617188 85.976563 266.640625 85.890625 266.703125 C 84.417969 267.761719 82.535156 268.378906 80.570313 268.378906 C 75.449219 268.378906 71.9375 264.859375 71.9375 259.652344 C 71.9375 254.480469 75.355469 250.929688 80.160156 250.929688 C 82.304688 250.929688 83.929688 251.414063 85.3125 252.328125 C 85.394531 252.386719 85.496094 252.40625 85.597656 252.382813 C 85.691406 252.363281 85.777344 252.304688 85.828125 252.21875 C 86.070313 251.832031 86.46875 251.191406 86.691406 250.828125 C 86.789063 250.671875 86.753906 250.464844 86.609375 250.347656 C 85.035156 249.132813 82.824219 248.4375 80.128906 248.4375 C 73.203125 248.4375 69.09375 253.390625 69.09375 259.652344 C 69.09375 266.445313 73.679688 270.871094 80.316406 270.871094 C 82.945313 270.871094 85.574219 270.019531 87.097656 268.636719 C 87.21875 268.523438 87.25 268.34375 87.171875 268.195313 C 86.984375 267.851563 86.648438 267.226563 86.433594 266.824219 "/>
<path style=" stroke:none;fill-rule:nonzero;fill:rgb(36.083984%,36.863708%,39.598083%);fill-opacity:1;" d="M 88.929688 263.550781 C 88.929688 267.753906 91.964844 270.871094 96.519531 270.871094 C 101.070313 270.871094 104.105469 267.753906 104.105469 263.550781 C 104.105469 259.34375 101.070313 256.226563 96.519531 256.226563 C 91.964844 256.226563 88.929688 259.34375 88.929688 263.550781 Z M 91.617188 263.550781 C 91.617188 260.589844 93.734375 258.5625 96.519531 258.5625 C 99.363281 258.5625 101.417969 260.621094 101.417969 263.550781 C 101.417969 266.539063 99.363281 268.535156 96.519531 268.535156 C 93.671875 268.535156 91.617188 266.480469 91.617188 263.550781 "/>
<path style=" stroke:none;fill-rule:nonzero;fill:rgb(36.083984%,36.863708%,39.598083%);fill-opacity:1;" d="M 127.859375 261.367188 C 127.859375 257.535156 125.898438 256.289063 123.277344 256.289063 C 121.359375 256.289063 119.691406 257.082031 118.636719 258.273438 C 118.558594 258.363281 118.441406 258.414063 118.320313 258.398438 C 118.199219 258.386719 118.09375 258.3125 118.035156 258.207031 C 117.355469 257.03125 115.925781 256.289063 113.980469 256.289063 C 112.464844 256.289063 110.949219 256.84375 109.882813 257.71875 C 109.773438 257.816406 109.621094 257.839844 109.492188 257.78125 C 109.363281 257.722656 109.277344 257.59375 109.277344 257.453125 C 109.273438 257.257813 109.273438 257.066406 109.273438 256.90625 C 109.273438 256.808594 109.234375 256.714844 109.164063 256.644531 C 109.09375 256.578125 109 256.539063 108.902344 256.539063 C 108.425781 256.539063 107.589844 256.539063 107.109375 256.539063 C 107.011719 256.539063 106.917969 256.578125 106.851563 256.644531 C 106.78125 256.714844 106.742188 256.808594 106.742188 256.90625 C 106.742188 258.878906 106.742188 268.21875 106.742188 270.191406 C 106.742188 270.289063 106.78125 270.382813 106.851563 270.453125 C 106.917969 270.523438 107.011719 270.5625 107.109375 270.5625 C 107.589844 270.5625 108.425781 270.5625 108.902344 270.5625 C 109 270.5625 109.09375 270.523438 109.164063 270.453125 C 109.234375 270.382813 109.273438 270.289063 109.273438 270.191406 C 109.273438 268.515625 109.273438 261.632813 109.273438 260.644531 C 109.273438 260.566406 109.296875 260.488281 109.34375 260.425781 C 110.085938 259.441406 111.410156 258.625 113.003906 258.625 C 114.992188 258.625 116.035156 259.808594 116.035156 261.523438 L 116.035156 270.191406 C 116.035156 270.398438 116.203125 270.5625 116.402344 270.5625 C 116.886719 270.5625 117.71875 270.5625 118.199219 270.5625 C 118.402344 270.5625 118.566406 270.398438 118.566406 270.191406 L 118.566406 261.648438 C 118.566406 261.335938 118.566406 260.902344 118.535156 260.652344 C 119.199219 259.496094 120.558594 258.625 122.265625 258.625 C 124.320313 258.625 125.332031 259.746094 125.332031 262.054688 L 125.332031 270.191406 C 125.332031 270.289063 125.371094 270.382813 125.4375 270.453125 C 125.507813 270.523438 125.601563 270.5625 125.699219 270.5625 C 126.179688 270.5625 127.011719 270.5625 127.492188 270.5625 C 127.695313 270.5625 127.859375 270.398438 127.859375 270.191406 C 127.859375 268.480469 127.859375 261.378906 127.859375 261.367188 "/>
<path style=" stroke:none;fill-rule:nonzero;fill:rgb(36.083984%,36.863708%,39.598083%);fill-opacity:1;" d="M 131.480469 276.425781 C 131.480469 276.523438 131.519531 276.617188 131.585938 276.6875 C 131.65625 276.753906 131.75 276.792969 131.847656 276.792969 C 132.324219 276.792969 133.160156 276.792969 133.640625 276.792969 C 133.84375 276.792969 134.007813 276.628906 134.007813 276.425781 C 134.007813 275.304688 134.007813 271.925781 134.007813 270.523438 C 134.007813 270.398438 134.074219 270.277344 134.183594 270.210938 C 134.292969 270.144531 134.429688 270.140625 134.542969 270.199219 C 135.507813 270.65625 136.753906 270.871094 138.023438 270.871094 C 142.480469 270.871094 145.421875 267.601563 145.421875 263.332031 C 145.421875 259.1875 142.890625 256.226563 138.84375 256.226563 C 137.234375 256.226563 135.664063 256.792969 134.613281 257.621094 C 134.507813 257.714844 134.355469 257.734375 134.226563 257.675781 C 134.097656 257.621094 134.015625 257.492188 134.015625 257.347656 C 134.007813 257.191406 134.007813 257.039063 134.007813 256.90625 C 134.007813 256.808594 133.96875 256.714844 133.898438 256.644531 C 133.832031 256.578125 133.738281 256.539063 133.640625 256.539063 C 133.160156 256.539063 132.324219 256.539063 131.847656 256.539063 C 131.75 256.539063 131.65625 256.578125 131.585938 256.644531 C 131.519531 256.714844 131.480469 256.808594 131.480469 256.90625 C 131.480469 259.410156 131.480469 273.921875 131.480469 276.425781 Z M 138.117188 258.5625 C 141.058594 258.5625 142.734375 260.589844 142.734375 263.425781 C 142.734375 266.382813 140.835938 268.535156 137.800781 268.535156 C 136.503906 268.535156 135.378906 268.308594 134.179688 267.554688 C 134.074219 267.488281 134.007813 267.371094 134.007813 267.246094 C 134.007813 266.214844 134.007813 261.480469 134.007813 260.628906 C 134.007813 260.539063 134.039063 260.457031 134.09375 260.390625 C 134.992188 259.351563 136.496094 258.5625 138.117188 258.5625 "/>
<path style=" stroke:none;fill-rule:nonzero;fill:rgb(36.083984%,36.863708%,39.598083%);fill-opacity:1;" d="M 149.320313 259.09375 C 149.355469 259.195313 149.429688 259.277344 149.527344 259.316406 C 149.625 259.355469 149.738281 259.355469 149.832031 259.304688 C 150.835938 258.816406 151.828125 258.46875 153.375 258.46875 C 155.949219 258.46875 156.511719 259.980469 156.589844 262.242188 C 156.59375 262.371094 156.527344 262.496094 156.417969 262.5625 C 156.308594 262.632813 156.167969 262.636719 156.054688 262.574219 C 155.140625 262.136719 153.972656 261.992188 153.058594 261.992188 C 149.992188 261.992188 147.683594 263.582031 147.683594 266.445313 C 147.683594 269.160156 149.453125 270.777344 152.046875 270.777344 C 153.886719 270.777344 155.121094 270.179688 155.980469 269.410156 C 156.085938 269.308594 156.238281 269.28125 156.371094 269.335938 C 156.507813 269.394531 156.59375 269.523438 156.59375 269.667969 C 156.601563 269.855469 156.601563 270.039063 156.601563 270.191406 C 156.601563 270.398438 156.765625 270.5625 156.96875 270.5625 C 157.421875 270.5625 158.183594 270.5625 158.636719 270.5625 C 158.839844 270.5625 159.003906 270.398438 159.003906 270.191406 L 159.003906 261.960938 C 159.003906 258.3125 157.578125 256.226563 153.53125 256.226563 C 151.882813 256.226563 150.285156 256.660156 149.050781 257.351563 C 148.898438 257.4375 148.832031 257.621094 148.886719 257.785156 C 149 258.125 149.191406 258.703125 149.320313 259.09375 Z M 152.933594 268.535156 C 151.289063 268.535156 150.371094 267.664063 150.371094 266.324219 C 150.371094 264.703125 151.890625 264.015625 153.40625 264.015625 C 154.5625 264.015625 155.582031 264.289063 156.433594 264.839844 C 156.535156 264.90625 156.597656 265.023438 156.597656 265.144531 C 156.601563 265.507813 156.601563 266.277344 156.601563 266.589844 C 156.601563 266.679688 156.566406 266.765625 156.507813 266.832031 C 155.78125 267.648438 154.71875 268.535156 152.933594 268.535156 "/>
<path style=" stroke:none;fill-rule:nonzero;fill:rgb(36.083984%,36.863708%,39.598083%);fill-opacity:1;" d="M 162.503906 270.191406 C 162.503906 270.289063 162.539063 270.382813 162.609375 270.453125 C 162.679688 270.523438 162.773438 270.5625 162.871094 270.5625 C 163.347656 270.5625 164.183594 270.5625 164.664063 270.5625 C 164.867188 270.5625 165.03125 270.398438 165.03125 270.191406 C 165.03125 268.519531 165.03125 261.652344 165.03125 260.574219 C 165.03125 260.480469 165.066406 260.390625 165.128906 260.324219 C 166.054688 259.351563 167.488281 258.625 169.046875 258.625 C 171.703125 258.625 173.0625 259.996094 173.0625 262.925781 L 173.0625 270.191406 C 173.0625 270.398438 173.226563 270.5625 173.429688 270.5625 C 173.90625 270.5625 174.742188 270.5625 175.222656 270.5625 C 175.425781 270.5625 175.589844 270.398438 175.589844 270.191406 L 175.589844 262.457031 C 175.589844 258.066406 173.378906 256.289063 169.679688 256.289063 C 168.148438 256.289063 166.660156 256.894531 165.636719 257.699219 C 165.527344 257.792969 165.375 257.8125 165.246094 257.753906 C 165.117188 257.695313 165.035156 257.566406 165.035156 257.425781 C 165.03125 257.242188 165.03125 257.058594 165.03125 256.90625 C 165.03125 256.703125 164.867188 256.539063 164.664063 256.539063 C 164.183594 256.539063 163.347656 256.539063 162.871094 256.539063 C 162.773438 256.539063 162.679688 256.578125 162.609375 256.644531 C 162.539063 256.714844 162.503906 256.808594 162.503906 256.90625 C 162.503906 258.878906 162.503906 268.21875 162.503906 270.191406 "/>
<path style=" stroke:none;fill-rule:nonzero;fill:rgb(36.083984%,36.863708%,39.598083%);fill-opacity:1;" d="M 191.539063 257.042969 C 191.585938 256.929688 191.574219 256.800781 191.503906 256.699219 C 191.4375 256.597656 191.324219 256.539063 191.199219 256.539063 C 190.578125 256.539063 189.589844 256.539063 189.125 256.539063 C 188.972656 256.539063 188.835938 256.632813 188.78125 256.777344 C 188.261719 258.171875 185.664063 265.195313 185.582031 265.414063 C 185.582031 265.417969 185.582031 265.417969 185.578125 265.421875 C 185.449219 265.804688 185.332031 266.175781 185.21875 266.539063 C 185.171875 266.6875 185.039063 266.792969 184.882813 266.796875 C 184.726563 266.804688 184.585938 266.710938 184.527344 266.566406 C 184.378906 266.199219 184.230469 265.832031 184.066406 265.453125 C 184.0625 265.449219 184.0625 265.449219 184.0625 265.445313 C 183.972656 265.253906 180.613281 258.082031 179.988281 256.75 C 179.929688 256.621094 179.800781 256.539063 179.65625 256.539063 C 179.1875 256.539063 178.117188 256.539063 177.445313 256.539063 C 177.316406 256.539063 177.199219 256.601563 177.132813 256.710938 C 177.066406 256.816406 177.058594 256.953125 177.113281 257.066406 C 178.269531 259.445313 182.96875 269.089844 183.609375 270.410156 C 183.65625 270.503906 183.660156 270.617188 183.621094 270.714844 C 183.527344 270.933594 183.367188 271.308594 183.367188 271.308594 C 182.421875 273.550781 181.535156 274.488281 180.335938 274.488281 C 179.894531 274.488281 179.472656 274.339844 179.085938 274.171875 C 178.898438 274.089844 178.6875 274.175781 178.605469 274.363281 C 178.449219 274.722656 178.203125 275.289063 178.054688 275.632813 C 177.980469 275.800781 178.046875 275.996094 178.203125 276.09375 C 178.894531 276.503906 179.671875 276.792969 180.617188 276.792969 C 182.640625 276.792969 183.96875 275.578125 186.054688 270.5625 C 186.054688 270.5625 186.054688 270.5625 186.054688 270.558594 C 186.113281 270.417969 190.527344 259.539063 191.539063 257.042969 "/>
<path style=" stroke:none;fill-rule:nonzero;fill:rgb(19.993591%,19.993591%,18.821716%);fill-opacity:1;" d="M 2.660156 222.183594 C 2.660156 222.570313 2.8125 222.9375 3.082031 223.207031 C 3.351563 223.480469 3.722656 223.628906 4.105469 223.628906 C 5.652344 223.628906 8.09375 223.628906 9.640625 223.628906 C 10.023438 223.628906 10.394531 223.480469 10.664063 223.207031 C 10.9375 222.9375 11.089844 222.570313 11.089844 222.183594 C 11.089844 213.257813 11.089844 165.757813 11.089844 156.832031 C 11.089844 156.449219 10.9375 156.082031 10.664063 155.808594 C 10.394531 155.539063 10.023438 155.386719 9.640625 155.386719 C 8.09375 155.386719 5.652344 155.386719 4.105469 155.386719 C 3.722656 155.386719 3.351563 155.539063 3.082031 155.808594 C 2.8125 156.082031 2.660156 156.449219 2.660156 156.832031 C 2.660156 165.757813 2.660156 213.257813 2.660156 222.183594 "/>
<path style=" stroke:none;fill-rule:nonzero;fill:rgb(19.993591%,19.993591%,18.821716%);fill-opacity:1;" d="M 22.457031 180.945313 C 22.457031 180.222656 23.042969 179.636719 23.769531 179.636719 C 25.238281 179.636719 27.609375 179.636719 29.078125 179.636719 C 29.804688 179.636719 30.390625 180.222656 30.390625 180.945313 C 30.390625 181.636719 30.390625 182.492188 30.390625 183.238281 C 30.390625 183.539063 30.570313 183.816406 30.847656 183.933594 C 31.125 184.054688 31.445313 184 31.667969 183.796875 C 34.886719 181.023438 39.851563 178.851563 44.972656 178.851563 C 56.574219 178.851563 63.519531 184.425781 63.519531 198.210938 C 63.519531 198.210938 63.519531 217.117188 63.519531 222.320313 C 63.519531 223.046875 62.929688 223.632813 62.207031 223.632813 C 60.738281 223.632813 58.367188 223.632813 56.894531 223.632813 C 56.171875 223.632813 55.585938 223.046875 55.585938 222.320313 C 55.585938 217.3125 55.585938 199.679688 55.585938 199.679688 C 55.585938 190.488281 51.320313 186.1875 42.988281 186.1875 C 38.257813 186.1875 33.878906 188.320313 30.976563 191.234375 C 30.605469 191.621094 30.398438 192.132813 30.398438 192.667969 C 30.390625 196.953125 30.390625 216.980469 30.390625 222.320313 C 30.390625 223.046875 29.804688 223.632813 29.078125 223.632813 C 27.609375 223.632813 25.238281 223.632813 23.769531 223.632813 C 23.042969 223.632813 22.457031 223.046875 22.457031 222.320313 C 22.457031 215.855469 22.457031 187.414063 22.457031 180.945313 "/>
<path style=" stroke:none;fill-rule:nonzero;fill:rgb(19.993591%,19.993591%,18.821716%);fill-opacity:1;" d="M 72.550781 172.105469 C 72.550781 162.234375 80.285156 154.214844 93.476563 154.214844 C 104.492188 154.214844 111.003906 159.515625 115.09375 163.769531 C 115.574219 164.28125 115.570313 165.078125 115.085938 165.582031 C 114.136719 166.566406 112.617188 168.132813 111.644531 169.136719 C 111.402344 169.386719 111.066406 169.53125 110.714844 169.535156 C 110.363281 169.539063 110.023438 169.402344 109.773438 169.152344 C 106.277344 165.625 102.757813 162.035156 93.972656 162.035156 C 86.238281 162.035156 81.476563 166.042969 81.476563 172.105469 C 81.476563 189.019531 115.398438 182.664063 115.398438 206.035156 C 115.398438 217.277344 105.382813 224.609375 92.785156 224.609375 C 84.621094 224.609375 75.1875 221.117188 71.347656 215.160156 C 71.058594 214.679688 71.109375 214.070313 71.476563 213.644531 C 72.28125 212.6875 73.746094 210.976563 74.726563 209.835938 C 74.976563 209.546875 75.335938 209.378906 75.714844 209.375 C 76.097656 209.375 76.460938 209.539063 76.710938 209.824219 C 80.878906 214.367188 87.476563 216.785156 92.882813 216.785156 C 100.125 216.785156 106.472656 213.074219 106.472656 206.128906 C 106.472656 189.410156 72.550781 194.789063 72.550781 172.105469 "/>
<path style=" stroke:none;fill-rule:nonzero;fill:rgb(19.993591%,19.993591%,18.821716%);fill-opacity:1;" d="M 144.816406 223.632813 C 138.273438 239.371094 134.105469 243.1875 127.757813 243.1875 C 124.84375 243.1875 122.445313 242.308594 120.308594 241.058594 C 119.746094 240.722656 119.519531 240.019531 119.777344 239.417969 C 120.222656 238.382813 120.90625 236.792969 121.378906 235.699219 C 121.664063 235.042969 122.425781 234.734375 123.085938 235.007813 C 124.265625 235.519531 125.539063 235.953125 126.867188 235.953125 C 130.636719 235.953125 133.410156 233.019531 136.386719 225.980469 C 136.386719 225.980469 136.839844 224.90625 137.132813 224.210938 C 137.289063 223.84375 137.277344 223.425781 137.101563 223.066406 C 134.9375 218.621094 120.65625 189.289063 116.871094 181.519531 C 116.675781 181.113281 116.699219 180.632813 116.941406 180.25 C 117.179688 179.867188 117.601563 179.632813 118.050781 179.632813 C 120.121094 179.632813 123.183594 179.632813 124.640625 179.632813 C 125.152344 179.632813 125.613281 179.929688 125.828125 180.390625 C 127.921875 184.855469 138.570313 207.597656 138.570313 207.597656 C 139.285156 209.21875 139.898438 210.792969 140.519531 212.390625 C 140.625 212.660156 140.890625 212.828125 141.179688 212.816406 C 141.464844 212.804688 141.714844 212.609375 141.796875 212.332031 C 142.257813 210.769531 142.769531 209.160156 143.328125 207.5 C 143.328125 207.5 151.59375 185.175781 153.328125 180.492188 C 153.519531 179.976563 154.011719 179.632813 154.558594 179.632813 C 155.996094 179.632813 158.816406 179.632813 160.722656 179.632813 C 161.160156 179.632813 161.566406 179.851563 161.8125 180.214844 C 162.054688 180.574219 162.105469 181.035156 161.9375 181.441406 C 158.582031 189.714844 144.816406 223.632813 144.816406 223.632813 "/>
<path style=" stroke:none;fill-rule:nonzero;fill:rgb(19.993591%,19.993591%,18.821716%);fill-opacity:1;" d="M 215.28125 192.445313 C 214.949219 192.445313 214.636719 192.574219 214.398438 192.808594 C 214.167969 193.042969 214.035156 193.359375 214.035156 193.691406 C 214.035156 197.757813 214.035156 210.621094 214.035156 214.554688 C 214.035156 215.207031 214.535156 215.75 215.1875 215.800781 C 217.632813 215.960938 221.367188 216.105469 224.746094 216.105469 C 234.960938 216.105469 241.011719 212 241.011719 203.589844 C 241.011719 196.355469 235.261719 192.445313 225.242188 192.445313 C 225.242188 192.445313 218.199219 192.445313 215.28125 192.445313 Z M 214.035156 163.015625 C 214.035156 163.015625 214.035156 179.199219 214.035156 183.863281 C 214.035156 184.195313 214.167969 184.511719 214.398438 184.746094 C 214.636719 184.980469 214.949219 185.109375 215.28125 185.109375 C 218.183594 185.109375 225.140625 185.109375 225.140625 185.109375 C 232.488281 185.109375 238.53125 181.101563 238.53125 173.671875 C 238.53125 166.535156 233.675781 162.722656 224.449219 162.722656 C 220.777344 162.722656 216.515625 162.917969 214.035156 163.015625 M 205.605469 156.503906 C 205.605469 155.828125 206.144531 155.277344 206.820313 155.261719 C 211.09375 155.160156 218.808594 155.023438 224.648438 155.023438 C 241.214844 155.023438 246.960938 162.328125 246.960938 171.8125 C 246.960938 180.351563 242.46875 185.324219 235.902344 187.503906 C 235.8125 187.53125 235.753906 187.617188 235.753906 187.710938 C 235.753906 187.734375 235.753906 187.761719 235.753906 187.785156 C 235.753906 187.894531 235.828125 187.984375 235.933594 188 C 244.453125 189.414063 249.445313 194.757813 249.445313 204.078125 C 249.445313 217.960938 238.632813 223.925781 224.25 223.925781 C 218.652344 223.925781 211.160156 223.765625 206.792969 223.585938 C 206.128906 223.558594 205.605469 223.007813 205.605469 222.34375 C 205.605469 214.039063 205.605469 164.890625 205.605469 156.503906 "/>
<path style=" stroke:none;fill-rule:nonzero;fill:rgb(19.993591%,19.993591%,18.821716%);fill-opacity:1;" d="M 258.132813 180.949219 C 258.132813 180.222656 258.722656 179.636719 259.445313 179.636719 C 260.917969 179.636719 263.285156 179.636719 264.761719 179.636719 C 265.480469 179.636719 266.070313 180.222656 266.070313 180.949219 C 266.070313 187.414063 266.070313 215.855469 266.070313 222.320313 C 266.070313 223.046875 265.480469 223.632813 264.761719 223.632813 C 263.285156 223.632813 260.917969 223.632813 259.445313 223.632813 C 258.722656 223.632813 258.132813 223.046875 258.132813 222.320313 C 258.132813 215.855469 258.132813 187.414063 258.132813 180.949219 Z M 262.300781 160.644531 C 264.777344 160.644531 267.160156 162.5 267.160156 165.332031 C 267.160156 168.5625 264.777344 170.417969 262.300781 170.417969 C 259.523438 170.417969 257.140625 168.5625 257.140625 165.332031 C 257.140625 162.5 259.523438 160.644531 262.300781 160.644531 "/>
<path style=" stroke:none;fill-rule:nonzero;fill:rgb(19.993591%,19.993591%,18.821716%);fill-opacity:1;" d="M 298.222656 217.277344 C 307.148438 217.277344 313.597656 211.019531 313.597656 201.632813 C 313.597656 192.445313 307.148438 185.992188 298.222656 185.992188 C 289.492188 185.992188 282.847656 192.34375 282.847656 201.632813 C 282.847656 210.824219 289.296875 217.277344 298.222656 217.277344 M 298.222656 178.660156 C 311 178.660156 322.023438 188.433594 322.023438 201.632813 C 322.023438 214.832031 311.035156 224.609375 298.222656 224.609375 C 285.410156 224.609375 274.417969 214.832031 274.417969 201.632813 C 274.417969 188.433594 285.34375 178.660156 298.222656 178.660156 "/>
<path style=" stroke:none;fill-rule:nonzero;fill:rgb(19.993591%,19.993591%,18.821716%);fill-opacity:1;" d="M 164.128906 191.074219 C 164.128906 183.351563 170.476563 178.660156 179.304688 178.660156 C 185.964844 178.660156 190.988281 180.832031 193.863281 183.132813 C 194.328125 183.535156 194.429688 184.214844 194.101563 184.734375 C 193.453125 185.773438 192.371094 187.484375 191.652344 188.625 C 191.464844 188.921875 191.160156 189.125 190.8125 189.1875 C 190.464844 189.246094 190.109375 189.15625 189.832031 188.941406 C 187.238281 186.996094 183.769531 185.5 179.699219 185.5 C 175.234375 185.5 172.558594 188.042969 172.558594 190.980469 C 172.558594 200.265625 196.660156 195.867188 196.660156 211.3125 C 196.660156 220.601563 188.328125 224.609375 179.402344 224.609375 C 172.746094 224.609375 166.171875 221.46875 163.535156 218.53125 C 163.191406 218.082031 163.199219 217.457031 163.554688 217.011719 C 164.320313 216.039063 165.664063 214.359375 166.542969 213.261719 C 166.761719 212.988281 167.089844 212.820313 167.4375 212.796875 C 167.789063 212.777344 168.132813 212.90625 168.386719 213.152344 C 171.265625 215.679688 176.328125 217.765625 180.292969 217.765625 C 184.460938 217.765625 188.230469 215.710938 188.230469 211.707031 C 188.230469 202.804688 164.128906 207.207031 164.128906 191.074219 "/>
<path style=" stroke:none;fill-rule:nonzero;fill:rgb(50.193787%,14.892578%,58.396912%);fill-opacity:1;" d="M 216.308594 63.023438 C 214.84375 65.445313 212.59375 67.277344 210.457031 68.871094 C 208.097656 70.472656 205.847656 71.855469 204.007813 73.417969 C 203.035156 74.195313 202.199219 75.019531 201.578125 75.96875 C 201.414063 76.203125 201.289063 76.453125 201.136719 76.699219 C 200.972656 76.945313 200.824219 77.203125 200.6875 77.472656 C 200.417969 78.007813 200.203125 78.582031 200.054688 79.21875 C 199.976563 79.535156 199.925781 79.847656 199.886719 80.160156 C 199.84375 80.464844 199.769531 80.753906 199.742188 81.046875 C 199.667969 81.632813 199.671875 82.207031 199.734375 82.78125 C 199.792969 83.359375 199.914063 83.933594 200.082031 84.511719 C 200.203125 85.066406 200.359375 85.621094 200.558594 86.191406 C 200.960938 87.320313 201.511719 88.484375 202.121094 89.683594 C 202.746094 90.894531 203.265625 92.058594 203.855469 93.320313 C 204.421875 94.570313 204.960938 95.875 205.382813 97.230469 C 205.808594 98.585938 205.976563 99.902344 206.007813 101.320313 C 206.011719 102.023438 205.96875 102.738281 205.859375 103.464844 C 205.753906 104.199219 205.582031 104.9375 205.261719 105.621094 C 204.664063 107.023438 203.753906 108.449219 202.476563 109.851563 C 201.078125 111.125 199.648438 112.035156 198.25 112.636719 C 197.5625 112.957031 196.824219 113.125 196.09375 113.230469 C 195.367188 113.339844 194.652344 113.390625 193.949219 113.382813 C 192.53125 113.351563 191.210938 113.183594 189.855469 112.757813 C 188.5 112.332031 187.199219 111.792969 185.949219 111.230469 C 184.6875 110.640625 183.519531 110.117188 182.308594 109.496094 C 181.109375 108.886719 179.949219 108.335938 178.816406 107.933594 C 178.25 107.734375 177.695313 107.578125 177.136719 107.457031 C 176.558594 107.289063 175.984375 107.167969 175.410156 107.105469 C 174.835938 107.042969 174.257813 107.042969 173.675781 107.113281 C 173.378906 107.144531 173.09375 107.21875 172.785156 107.261719 C 172.476563 107.296875 172.164063 107.351563 171.84375 107.425781 C 171.210938 107.578125 170.632813 107.789063 170.097656 108.0625 C 169.832031 108.195313 169.574219 108.347656 169.328125 108.511719 C 169.078125 108.664063 168.828125 108.789063 168.59375 108.949219 C 167.644531 109.574219 166.820313 110.40625 166.042969 111.378906 C 164.484375 113.21875 163.101563 115.472656 161.5 117.828125 C 159.902344 119.96875 158.070313 122.21875 155.648438 123.679688 C 154.445313 124.359375 153.089844 124.875 151.558594 125.148438 C 151.175781 125.210938 150.78125 125.285156 150.378906 125.296875 C 149.980469 125.296875 149.574219 125.28125 149.152344 125.246094 C 148.316406 125.179688 147.433594 125.039063 146.511719 124.8125 C 146.054688 124.699219 145.613281 124.570313 145.191406 124.433594 C 144.769531 124.285156 144.382813 124.070313 144.007813 123.878906 C 143.261719 123.480469 142.582031 123.039063 141.976563 122.566406 C 141.371094 122.09375 140.835938 121.589844 140.359375 121.058594 C 139.90625 120.480469 139.515625 119.867188 139.171875 119.242188 C 138.488281 117.996094 138.019531 116.695313 137.675781 115.375 C 137.324219 114.070313 137.1875 112.589844 137.050781 111.230469 C 136.945313 109.875 136.839844 108.527344 136.734375 107.214844 C 136.621094 105.929688 136.566406 104.574219 136.351563 103.394531 C 136.246094 102.792969 136.117188 102.21875 135.941406 101.671875 C 135.765625 101.128906 135.546875 100.617188 135.339844 100.050781 C 134.886719 98.964844 134.234375 97.992188 133.246094 97.128906 C 132.378906 96.136719 131.40625 95.484375 130.320313 95.035156 C 129.757813 94.824219 129.242188 94.605469 128.699219 94.429688 C 128.15625 94.257813 127.578125 94.125 126.980469 94.023438 C 125.800781 93.804688 124.441406 93.753906 123.160156 93.636719 C 121.84375 93.535156 120.496094 93.429688 119.144531 93.320313 C 117.785156 93.183594 116.304688 93.046875 115 92.699219 C 113.679688 92.355469 112.375 91.882813 111.128906 91.199219 C 110.507813 90.859375 109.894531 90.46875 109.3125 90.011719 C 108.785156 89.535156 108.28125 89 107.808594 88.394531 C 107.335938 87.789063 106.890625 87.113281 106.492188 86.363281 C 106.300781 85.988281 106.089844 85.605469 105.941406 85.183594 C 105.800781 84.761719 105.675781 84.320313 105.5625 83.863281 C 105.335938 82.9375 105.191406 82.058594 105.125 81.21875 C 105.089844 80.800781 105.078125 80.390625 105.078125 79.992188 C 105.089844 79.59375 105.160156 79.199219 105.222656 78.816406 C 105.5 77.285156 106.015625 75.929688 106.691406 74.722656 C 108.152344 72.304688 110.40625 70.46875 112.542969 68.871094 C 114.902344 67.273438 117.152344 65.890625 118.992188 64.328125 C 119.964844 63.550781 120.800781 62.726563 121.421875 61.777344 C 121.582031 61.542969 121.707031 61.292969 121.863281 61.042969 C 122.023438 60.800781 122.175781 60.542969 122.3125 60.273438 C 122.582031 59.742188 122.796875 59.164063 122.945313 58.527344 C 123.019531 58.207031 123.074219 57.898438 123.109375 57.589844 C 123.152344 57.277344 123.230469 56.992188 123.257813 56.695313 C 123.332031 56.113281 123.328125 55.535156 123.265625 54.964844 C 123.207031 54.386719 123.082031 53.8125 122.914063 53.234375 C 122.796875 52.679688 122.640625 52.125 122.4375 51.554688 C 122.039063 50.425781 121.488281 49.265625 120.878906 48.0625 C 120.253906 46.851563 119.730469 45.6875 119.144531 44.425781 C 118.578125 43.171875 118.039063 41.871094 117.617188 40.515625 C 117.1875 39.160156 117.023438 37.84375 116.992188 36.425781 C 116.984375 35.722656 117.03125 35.007813 117.140625 34.277344 C 117.246094 33.550781 117.414063 32.808594 117.734375 32.125 C 118.335938 30.722656 119.246094 29.296875 120.523438 27.894531 C 121.921875 26.621094 123.347656 25.710938 124.75 25.109375 C 125.433594 24.789063 126.175781 24.621094 126.90625 24.515625 C 127.632813 24.402344 128.347656 24.359375 129.050781 24.367188 C 130.46875 24.394531 131.785156 24.5625 133.144531 24.988281 C 134.5 25.410156 135.800781 25.953125 137.050781 26.519531 C 138.3125 27.105469 139.480469 27.628906 140.6875 28.25 C 141.890625 28.863281 143.050781 29.410156 144.183594 29.8125 C 144.75 30.015625 145.304688 30.167969 145.863281 30.289063 C 146.4375 30.457031 147.011719 30.578125 147.589844 30.640625 C 148.164063 30.699219 148.742188 30.703125 149.324219 30.632813 C 149.617188 30.605469 149.90625 30.527344 150.214844 30.484375 C 150.523438 30.449219 150.835938 30.394531 151.15625 30.320313 C 151.789063 30.167969 152.367188 29.957031 152.898438 29.683594 C 153.167969 29.546875 153.425781 29.398438 153.671875 29.234375 C 153.921875 29.082031 154.171875 28.957031 154.40625 28.796875 C 155.355469 28.175781 156.179688 27.339844 156.953125 26.367188 C 158.515625 24.527344 159.902344 22.273438 161.5 19.917969 C 163.097656 17.777344 164.925781 15.527344 167.351563 14.066406 C 168.554688 13.386719 169.910156 12.871094 171.441406 12.597656 C 171.824219 12.535156 172.222656 12.464844 172.621094 12.449219 C 173.015625 12.449219 173.425781 12.464844 173.847656 12.5 C 174.683594 12.566406 175.566406 12.707031 176.488281 12.933594 C 176.945313 13.050781 177.386719 13.175781 177.808594 13.316406 C 178.230469 13.464844 178.617188 13.675781 178.992188 13.867188 C 179.742188 14.265625 180.414063 14.707031 181.019531 15.179688 C 181.625 15.652344 182.164063 16.160156 182.636719 16.6875 C 183.09375 17.265625 183.484375 17.882813 183.828125 18.5 C 184.507813 19.746094 184.984375 21.054688 185.324219 22.371094 C 185.675781 23.679688 185.8125 25.15625 185.949219 26.519531 C 186.054688 27.871094 186.160156 29.21875 186.265625 30.535156 C 186.378906 31.816406 186.433594 33.171875 186.648438 34.351563 C 186.75 34.953125 186.882813 35.527344 187.058594 36.074219 C 187.234375 36.613281 187.449219 37.132813 187.660156 37.695313 C 188.113281 38.78125 188.765625 39.753906 189.753906 40.617188 C 190.617188 41.605469 191.59375 42.261719 192.675781 42.710938 C 193.242188 42.921875 193.757813 43.136719 194.296875 43.316406 C 194.84375 43.488281 195.417969 43.621094 196.019531 43.726563 C 197.203125 43.941406 198.558594 43.992188 199.839844 44.109375 C 201.15625 44.214844 202.503906 44.320313 203.855469 44.425781 C 205.214844 44.5625 206.695313 44.699219 208 45.046875 C 209.320313 45.390625 210.625 45.863281 211.871094 46.546875 C 212.492188 46.886719 213.105469 47.277344 213.683594 47.734375 C 214.214844 48.207031 214.71875 48.746094 215.191406 49.351563 C 215.667969 49.957031 216.105469 50.632813 216.503906 51.378906 C 216.699219 51.757813 216.910156 52.140625 217.058594 52.5625 C 217.199219 52.984375 217.324219 53.425781 217.4375 53.886719 C 217.664063 54.808594 217.804688 55.6875 217.875 56.527344 C 217.90625 56.945313 217.921875 57.355469 217.921875 57.753906 C 217.910156 58.152344 217.835938 58.550781 217.773438 58.929688 C 217.5 60.464844 216.984375 61.820313 216.308594 63.023438 Z M 161.5 0.03125 C 123.480469 0.03125 92.660156 30.855469 92.660156 68.871094 C 92.660156 106.890625 123.480469 137.710938 161.5 137.710938 C 199.519531 137.710938 230.339844 106.890625 230.339844 68.871094 C 230.339844 30.855469 199.519531 0.03125 161.5 0.03125 "/>
<path style=" stroke:none;fill-rule:nonzero;fill:rgb(39.208984%,76.951599%,21.972656%);fill-opacity:1;" d="M 174.757813 63.410156 C 170.453125 63.410156 166.960938 59.917969 166.960938 55.613281 C 166.960938 51.308594 170.453125 47.820313 174.757813 47.820313 C 179.0625 47.820313 182.554688 51.308594 182.554688 55.613281 C 182.554688 59.917969 179.0625 63.410156 174.757813 63.410156 Z M 203.246094 54.210938 C 202.585938 53.074219 201.699219 52.152344 200.78125 51.371094 C 199.894531 50.589844 198.828125 49.972656 197.835938 49.429688 C 195.808594 48.351563 193.710938 47.640625 191.894531 46.808594 C 190 46 188.464844 45.074219 186.894531 43.476563 C 185.296875 41.910156 184.371094 40.371094 183.566406 38.476563 C 182.730469 36.660156 182.023438 34.5625 180.941406 32.535156 C 180.398438 31.546875 179.785156 30.476563 179 29.59375 C 178.222656 28.675781 177.296875 27.785156 176.160156 27.125 C 173.917969 25.734375 170.746094 24.988281 166.84375 26.019531 C 162.945313 27.078125 160.570313 29.335938 159.296875 31.632813 C 158.664063 32.804688 158.296875 34.023438 158.066406 35.1875 C 157.882813 36.40625 157.84375 37.585938 157.863281 38.707031 C 157.933594 39.878906 158.0625 40.996094 158.179688 42.050781 C 158.347656 43.152344 158.484375 44.175781 158.578125 45.175781 C 158.808594 47.210938 158.800781 49.023438 158.210938 51.167969 C 157.648438 53.320313 156.71875 54.90625 155.550781 56.554688 C 154.949219 57.335938 154.308594 58.175781 153.640625 59.050781 C 152.933594 59.917969 152.332031 60.808594 151.691406 61.785156 C 150.460938 63.734375 149.46875 65.96875 149.382813 68.648438 C 149.355469 71.261719 150.265625 74.425781 153.09375 77.277344 C 155.949219 80.105469 159.109375 81.019531 161.722656 80.992188 C 164.402344 80.90625 166.640625 79.914063 168.585938 78.679688 C 169.566406 78.039063 170.453125 77.4375 171.320313 76.734375 C 172.199219 76.066406 173.039063 75.421875 173.820313 74.824219 C 175.464844 73.652344 177.050781 72.726563 179.203125 72.160156 C 181.351563 71.570313 183.164063 71.5625 185.199219 71.792969 C 186.195313 71.886719 187.222656 72.027344 188.324219 72.195313 C 189.375 72.308594 190.496094 72.441406 191.664063 72.507813 C 192.789063 72.53125 193.96875 72.488281 195.183594 72.304688 C 196.347656 72.074219 197.566406 71.707031 198.742188 71.078125 C 201.039063 69.804688 203.292969 67.425781 204.355469 63.527344 C 205.382813 59.625 204.636719 56.453125 203.246094 54.210938 "/>
</g>
</svg>
