<svg width="1320" height="637" xmlns="http://www.w3.org/2000/svg" xmlns:xlink="http://www.w3.org/1999/xlink" overflow="hidden"><defs><clipPath id="clip0"><rect x="1695" y="1081" width="1320" height="637"/></clipPath></defs><g clip-path="url(#clip0)" transform="translate(-1695 -1081)"><text fill="#000000" fill-opacity="1" font-family="Museo Sans Cyrl 700,Museo Sans Cyrl 700_MSFontService,sans-serif" font-style="oblique" font-variant="normal" font-weight="600" font-stretch="normal" font-size="55" text-anchor="start" direction="ltr" writing-mode="lr-tb" unicode-bidi="normal" text-decoration="none" transform="matrix(1 0 0 1 2269.67 1411)">In Vitro<tspan fill="#000000" fill-opacity="1" font-family="Museo Sans Cyrl 700,Museo Sans Cyrl 700_MSFontService,sans-serif" font-style="normal" font-variant="normal" font-weight="600" font-stretch="normal" font-size="55" text-anchor="start" direction="ltr" writing-mode="lr-tb" unicode-bidi="normal" text-decoration="none" x="-508.828" y="-159">Proliferation</tspan><tspan fill="#000000" fill-opacity="1" font-family="Museo Sans Cyrl 700,Museo Sans Cyrl 700_MSFontService,sans-serif" font-style="normal" font-variant="normal" font-weight="600" font-stretch="normal" font-size="55" text-anchor="start" direction="ltr" writing-mode="lr-tb" unicode-bidi="normal" text-decoration="none" x="-535.937" y="160">Differentiation</tspan><tspan fill="#000000" fill-opacity="1" font-family="Museo Sans Cyrl 700,Museo Sans Cyrl 700_MSFontService,sans-serif" font-style="normal" font-variant="normal" font-weight="600" font-stretch="normal" font-size="55" text-anchor="start" direction="ltr" writing-mode="lr-tb" unicode-bidi="normal" text-decoration="none" x="-30.5571" y="-259">Migration</tspan><tspan fill="#000000" fill-opacity="1" font-family="Museo Sans Cyrl 700,Museo Sans Cyrl 700_MSFontService,sans-serif" font-style="normal" font-variant="normal" font-weight="600" font-stretch="normal" font-size="55" text-anchor="start" direction="ltr" writing-mode="lr-tb" unicode-bidi="normal" text-decoration="none" x="370.554" y="-174">Cell product </tspan><tspan fill="#000000" fill-opacity="1" font-family="Museo Sans Cyrl 700,Museo Sans Cyrl 700_MSFontService,sans-serif" font-style="normal" font-variant="normal" font-weight="600" font-stretch="normal" font-size="55" text-anchor="start" direction="ltr" writing-mode="lr-tb" unicode-bidi="normal" text-decoration="none" x="370.554" y="-108">secretion</tspan><tspan fill="#000000" fill-opacity="1" font-family="Museo Sans Cyrl 700,Museo Sans Cyrl 700_MSFontService,sans-serif" font-style="normal" font-variant="normal" font-weight="600" font-stretch="normal" font-size="55" text-anchor="start" direction="ltr" writing-mode="lr-tb" unicode-bidi="normal" text-decoration="none" x="370.554" y="160">Viability</tspan><tspan fill="#000000" fill-opacity="1" font-family="Museo Sans Cyrl 700,Museo Sans Cyrl 700_MSFontService,sans-serif" font-style="normal" font-variant="normal" font-weight="600" font-stretch="normal" font-size="55" text-anchor="start" direction="ltr" writing-mode="lr-tb" unicode-bidi="normal" text-decoration="none" x="72.6956" y="260">…</tspan></text><path d="M5.15625-1.16728e-05 5.15655 133.636-5.15595 133.636-5.15625 1.16728e-05ZM15.469 128.48 0.000360892 159.417-15.4685 128.48Z" fill="#7A2685" fill-rule="nonzero" fill-opacity="1" transform="matrix(1 0 0 -1 2366 1342.42)"/><path d="M3.10417-4.11717 121.614 85.2344 115.406 93.4688-3.10417 4.11717ZM123.705 73.8959 139.096 104.872 105.08 98.5989Z" fill="#7A2685" fill-rule="nonzero" fill-opacity="1" transform="matrix(1 0 0 -1 2468 1356.87)"/><path d="M2469.21 1435.96 2590.15 1532.01 2583.74 1540.09 2462.79 1444.04ZM2592.53 1520.73 2607.14 1552.08 2573.29 1544.96Z" fill="#7A2685" fill-rule="nonzero" fill-opacity="1"/><path d="M2371.16 1443 2371.16 1576.64 2360.84 1576.64 2360.84 1443ZM2381.47 1571.48 2366 1602.42 2350.53 1571.48Z" fill="#7A2685" fill-rule="nonzero" fill-opacity="1"/><path d="M3.76557-3.52241 94.1289 93.0789 86.5977 100.124-3.76557 3.52241ZM98.1376 82.2686 107.975 115.429 75.5442 103.403Z" fill="#7A2685" fill-rule="nonzero" fill-opacity="1" transform="matrix(-1 0 0 1 2257.98 1437)"/><path d="M2253.42 1346.44 2138.76 1253.26 2145.26 1245.26 2259.92 1338.43ZM2136.25 1264.52 2122 1233 2155.76 1240.51Z" fill="#7A2685" fill-rule="nonzero" fill-opacity="1"/></g></svg>